<svg xmlns="http://www.w3.org/2000/svg" version="1.1" xmlns:xlink="http://www.w3.org/1999/xlink" xmlns:svgjs="http://svgjs.dev/svgjs" width="1440" height="560" preserveAspectRatio="none" viewBox="0 0 1440 560"><g mask="url(&quot;#SvgjsMask1034&quot;)" fill="none"><rect width="1440" height="560" x="0" y="0" fill="rgba(169, 167, 167, 0.14)"></rect><path d="M720 681.68C828.53 678.68 939.61 653.08 1014.24 574.24 1087.27 497.09 1097.67 386.18 1100.26 280 1102.91 170.18 1098.35 56.25 1028.86-28.86 952.93-121.81 839.99-188.08 720-185.66 601.71-183.28 505.87-101.45 423.38-16.62 342.4 66.68 269.94 163.86 267.19 280 264.4 398.39 320.47 512.36 409.07 590.93 493.02 665.39 607.8 684.77 720 681.68" fill="rgba(255, 251, 251, 0.09)"></path><path d="M720 539.91C790.22 537.97 862.1 521.41 910.39 470.39 957.64 420.47 964.38 348.71 966.05 280 967.76 208.94 964.82 135.22 919.85 80.15 870.72 20 797.64-22.87 720-21.31 643.46-19.77 581.44 33.18 528.07 88.07 475.67 141.97 428.79 204.85 427 280 425.2 356.6 461.48 430.35 518.81 481.19 573.13 529.37 647.4 541.91 720 539.91" fill="rgba(191, 189, 189, 0.14)"></path><path d="M720 398.14C751.92 397.26 784.59 389.73 806.54 366.54 828.02 343.85 831.08 311.23 831.84 280 832.62 247.7 831.28 214.19 810.84 189.16 788.51 161.82 755.29 142.33 720 143.04 685.21 143.74 657.02 167.81 632.76 192.76 608.94 217.26 587.63 245.84 586.82 280 586 314.82 602.49 348.34 628.55 371.45 653.24 393.35 687 399.05 720 398.14" fill="rgba(173, 173, 173, 0.11)"></path></g><defs><mask id="SvgjsMask1034"><rect width="1440" height="560" fill="#ffffff"></rect></mask></defs></svg>