<svg xmlns="http://www.w3.org/2000/svg" version="1.1" xmlns:xlink="http://www.w3.org/1999/xlink" xmlns:svgjs="http://svgjs.dev/svgjs" width="1440" height="780" preserveAspectRatio="none" viewBox="0 0 1440 780"><g mask="url(&quot;#SvgjsMask1207&quot;)" fill="none"><path d="M79.52 365.72L155.73 409.72L155.73 497.72L79.52 541.72L3.31 497.72L3.31 409.72zM155.73 233.72L231.95 277.72L231.95 365.72L155.73 409.72L79.52 365.72L79.52 277.72zM155.73 497.72L231.95 541.72L231.95 629.72L155.73 673.72L79.52 629.72L79.52 541.72zM231.95 629.72L308.16 673.72L308.16 761.72L231.95 805.72L155.73 761.72L155.73 673.72zM155.73 761.72L231.95 805.72L231.95 893.72L155.73 937.72L79.52 893.72L79.52 805.72zM384.37 101.72L460.58 145.72L460.58 233.72L384.37 277.72L308.16 233.72L308.16 145.72zM308.16 233.72L384.37 277.72L384.37 365.72L308.16 409.72L231.95 365.72L231.95 277.72zM613.01 -30.28L689.22 13.72L689.22 101.72L613.01 145.72L536.8 101.72L536.8 13.72zM613.01 233.72L689.22 277.72L689.22 365.72L613.01 409.72L536.8 365.72L536.8 277.72zM613.01 497.72L689.22 541.72L689.22 629.72L613.01 673.72L536.8 629.72L536.8 541.72zM613.01 761.72L689.22 805.72L689.22 893.72L613.01 937.72L536.8 893.72L536.8 805.72zM765.43 233.72L841.65 277.72L841.65 365.72L765.43 409.72L689.22 365.72L689.22 277.72zM841.65 629.72L917.86 673.72L917.86 761.72L841.65 805.72L765.43 761.72L765.43 673.72zM994.07 101.72L1070.28 145.72L1070.28 233.72L994.07 277.72L917.86 233.72L917.86 145.72zM917.86 233.72L994.07 277.72L994.07 365.72L917.86 409.72L841.65 365.72L841.65 277.72zM994.07 629.72L1070.28 673.72L1070.28 761.72L994.07 805.72L917.86 761.72L917.86 673.72zM1146.5 101.72L1222.71 145.72L1222.71 233.72L1146.5 277.72L1070.28 233.72L1070.28 145.72zM1146.5 629.72L1222.71 673.72L1222.71 761.72L1146.5 805.72L1070.28 761.72L1070.28 673.72zM1070.28 761.72L1146.5 805.72L1146.5 893.72L1070.28 937.72L994.07 893.72L994.07 805.72zM1222.71 233.72L1298.92 277.72L1298.92 365.72L1222.71 409.72L1146.5 365.72L1146.5 277.72zM1375.13 -30.28L1451.35 13.72L1451.35 101.72L1375.13 145.72L1298.92 101.72L1298.92 13.72zM1375.13 497.72L1451.35 541.72L1451.35 629.72L1375.13 673.72L1298.92 629.72L1298.92 541.72zM1451.35 629.72L1527.56 673.72L1527.56 761.72L1451.35 805.72L1375.13 761.72L1375.13 673.72z" stroke="rgba(214, 214, 214, 0.32)" stroke-width="2"></path><path d="M70.72 365.72 a8.8 8.8 0 1 0 17.6 0 a8.8 8.8 0 1 0 -17.6 0zM146.93 409.72 a8.8 8.8 0 1 0 17.6 0 a8.8 8.8 0 1 0 -17.6 0zM146.93 497.72 a8.8 8.8 0 1 0 17.6 0 a8.8 8.8 0 1 0 -17.6 0zM70.72 541.72 a8.8 8.8 0 1 0 17.6 0 a8.8 8.8 0 1 0 -17.6 0zM-5.49 497.72 a8.8 8.8 0 1 0 17.6 0 a8.8 8.8 0 1 0 -17.6 0zM-5.49 409.72 a8.8 8.8 0 1 0 17.6 0 a8.8 8.8 0 1 0 -17.6 0zM146.93 233.72 a8.8 8.8 0 1 0 17.6 0 a8.8 8.8 0 1 0 -17.6 0zM223.15 277.72 a8.8 8.8 0 1 0 17.6 0 a8.8 8.8 0 1 0 -17.6 0zM223.15 365.72 a8.8 8.8 0 1 0 17.6 0 a8.8 8.8 0 1 0 -17.6 0zM70.72 277.72 a8.8 8.8 0 1 0 17.6 0 a8.8 8.8 0 1 0 -17.6 0zM223.15 541.72 a8.8 8.8 0 1 0 17.6 0 a8.8 8.8 0 1 0 -17.6 0zM223.15 629.72 a8.8 8.8 0 1 0 17.6 0 a8.8 8.8 0 1 0 -17.6 0zM146.93 673.72 a8.8 8.8 0 1 0 17.6 0 a8.8 8.8 0 1 0 -17.6 0zM70.72 629.72 a8.8 8.8 0 1 0 17.6 0 a8.8 8.8 0 1 0 -17.6 0zM299.36 673.72 a8.8 8.8 0 1 0 17.6 0 a8.8 8.8 0 1 0 -17.6 0zM299.36 761.72 a8.8 8.8 0 1 0 17.6 0 a8.8 8.8 0 1 0 -17.6 0zM223.15 805.72 a8.8 8.8 0 1 0 17.6 0 a8.8 8.8 0 1 0 -17.6 0zM146.93 761.72 a8.8 8.8 0 1 0 17.6 0 a8.8 8.8 0 1 0 -17.6 0zM223.15 893.72 a8.8 8.8 0 1 0 17.6 0 a8.8 8.8 0 1 0 -17.6 0zM146.93 937.72 a8.8 8.8 0 1 0 17.6 0 a8.8 8.8 0 1 0 -17.6 0zM70.72 893.72 a8.8 8.8 0 1 0 17.6 0 a8.8 8.8 0 1 0 -17.6 0zM70.72 805.72 a8.8 8.8 0 1 0 17.6 0 a8.8 8.8 0 1 0 -17.6 0zM375.57 101.72 a8.8 8.8 0 1 0 17.6 0 a8.8 8.8 0 1 0 -17.6 0zM451.78 145.72 a8.8 8.8 0 1 0 17.6 0 a8.8 8.8 0 1 0 -17.6 0zM451.78 233.72 a8.8 8.8 0 1 0 17.6 0 a8.8 8.8 0 1 0 -17.6 0zM375.57 277.72 a8.8 8.8 0 1 0 17.6 0 a8.8 8.8 0 1 0 -17.6 0zM299.36 233.72 a8.8 8.8 0 1 0 17.6 0 a8.8 8.8 0 1 0 -17.6 0zM299.36 145.72 a8.8 8.8 0 1 0 17.6 0 a8.8 8.8 0 1 0 -17.6 0zM375.57 365.72 a8.8 8.8 0 1 0 17.6 0 a8.8 8.8 0 1 0 -17.6 0zM299.36 409.72 a8.8 8.8 0 1 0 17.6 0 a8.8 8.8 0 1 0 -17.6 0zM604.21 -30.28 a8.8 8.8 0 1 0 17.6 0 a8.8 8.8 0 1 0 -17.6 0zM680.42 13.72 a8.8 8.8 0 1 0 17.6 0 a8.8 8.8 0 1 0 -17.6 0zM680.42 101.72 a8.8 8.8 0 1 0 17.6 0 a8.8 8.8 0 1 0 -17.6 0zM604.21 145.72 a8.8 8.8 0 1 0 17.6 0 a8.8 8.8 0 1 0 -17.6 0zM528 101.72 a8.8 8.8 0 1 0 17.6 0 a8.8 8.8 0 1 0 -17.6 0zM528 13.72 a8.8 8.8 0 1 0 17.6 0 a8.8 8.8 0 1 0 -17.6 0zM604.21 233.72 a8.8 8.8 0 1 0 17.6 0 a8.8 8.8 0 1 0 -17.6 0zM680.42 277.72 a8.8 8.8 0 1 0 17.6 0 a8.8 8.8 0 1 0 -17.6 0zM680.42 365.72 a8.8 8.8 0 1 0 17.6 0 a8.8 8.8 0 1 0 -17.6 0zM604.21 409.72 a8.8 8.8 0 1 0 17.6 0 a8.8 8.8 0 1 0 -17.6 0zM528 365.72 a8.8 8.8 0 1 0 17.6 0 a8.8 8.8 0 1 0 -17.6 0zM528 277.72 a8.8 8.8 0 1 0 17.6 0 a8.8 8.8 0 1 0 -17.6 0zM604.21 497.72 a8.8 8.8 0 1 0 17.6 0 a8.8 8.8 0 1 0 -17.6 0zM680.42 541.72 a8.8 8.8 0 1 0 17.6 0 a8.8 8.8 0 1 0 -17.6 0zM680.42 629.72 a8.8 8.8 0 1 0 17.6 0 a8.8 8.8 0 1 0 -17.6 0zM604.21 673.72 a8.8 8.8 0 1 0 17.6 0 a8.8 8.8 0 1 0 -17.6 0zM528 629.72 a8.8 8.8 0 1 0 17.6 0 a8.8 8.8 0 1 0 -17.6 0zM528 541.72 a8.8 8.8 0 1 0 17.6 0 a8.8 8.8 0 1 0 -17.6 0zM604.21 761.72 a8.8 8.8 0 1 0 17.6 0 a8.8 8.8 0 1 0 -17.6 0zM680.42 805.72 a8.8 8.8 0 1 0 17.6 0 a8.8 8.8 0 1 0 -17.6 0zM680.42 893.72 a8.8 8.8 0 1 0 17.6 0 a8.8 8.8 0 1 0 -17.6 0zM604.21 937.72 a8.8 8.8 0 1 0 17.6 0 a8.8 8.8 0 1 0 -17.6 0zM528 893.72 a8.8 8.8 0 1 0 17.6 0 a8.8 8.8 0 1 0 -17.6 0zM528 805.72 a8.8 8.8 0 1 0 17.6 0 a8.8 8.8 0 1 0 -17.6 0zM756.63 233.72 a8.8 8.8 0 1 0 17.6 0 a8.8 8.8 0 1 0 -17.6 0zM832.85 277.72 a8.8 8.8 0 1 0 17.6 0 a8.8 8.8 0 1 0 -17.6 0zM832.85 365.72 a8.8 8.8 0 1 0 17.6 0 a8.8 8.8 0 1 0 -17.6 0zM756.63 409.72 a8.8 8.8 0 1 0 17.6 0 a8.8 8.8 0 1 0 -17.6 0zM832.85 629.72 a8.8 8.8 0 1 0 17.6 0 a8.8 8.8 0 1 0 -17.6 0zM909.06 673.72 a8.8 8.8 0 1 0 17.6 0 a8.8 8.8 0 1 0 -17.6 0zM909.06 761.72 a8.8 8.8 0 1 0 17.6 0 a8.8 8.8 0 1 0 -17.6 0zM832.85 805.72 a8.8 8.8 0 1 0 17.6 0 a8.8 8.8 0 1 0 -17.6 0zM756.63 761.72 a8.8 8.8 0 1 0 17.6 0 a8.8 8.8 0 1 0 -17.6 0zM756.63 673.72 a8.8 8.8 0 1 0 17.6 0 a8.8 8.8 0 1 0 -17.6 0zM985.27 101.72 a8.8 8.8 0 1 0 17.6 0 a8.8 8.8 0 1 0 -17.6 0zM1061.48 145.72 a8.8 8.8 0 1 0 17.6 0 a8.8 8.8 0 1 0 -17.6 0zM1061.48 233.72 a8.8 8.8 0 1 0 17.6 0 a8.8 8.8 0 1 0 -17.6 0zM985.27 277.72 a8.8 8.8 0 1 0 17.6 0 a8.8 8.8 0 1 0 -17.6 0zM909.06 233.72 a8.8 8.8 0 1 0 17.6 0 a8.8 8.8 0 1 0 -17.6 0zM909.06 145.72 a8.8 8.8 0 1 0 17.6 0 a8.8 8.8 0 1 0 -17.6 0zM985.27 365.72 a8.8 8.8 0 1 0 17.6 0 a8.8 8.8 0 1 0 -17.6 0zM909.06 409.72 a8.8 8.8 0 1 0 17.6 0 a8.8 8.8 0 1 0 -17.6 0zM985.27 629.72 a8.8 8.8 0 1 0 17.6 0 a8.8 8.8 0 1 0 -17.6 0zM1061.48 673.72 a8.8 8.8 0 1 0 17.6 0 a8.8 8.8 0 1 0 -17.6 0zM1061.48 761.72 a8.8 8.8 0 1 0 17.6 0 a8.8 8.8 0 1 0 -17.6 0zM985.27 805.72 a8.8 8.8 0 1 0 17.6 0 a8.8 8.8 0 1 0 -17.6 0zM1137.7 101.72 a8.8 8.8 0 1 0 17.6 0 a8.8 8.8 0 1 0 -17.6 0zM1213.91 145.72 a8.8 8.8 0 1 0 17.6 0 a8.8 8.8 0 1 0 -17.6 0zM1213.91 233.72 a8.8 8.8 0 1 0 17.6 0 a8.8 8.8 0 1 0 -17.6 0zM1137.7 277.72 a8.8 8.8 0 1 0 17.6 0 a8.8 8.8 0 1 0 -17.6 0zM1137.7 629.72 a8.8 8.8 0 1 0 17.6 0 a8.8 8.8 0 1 0 -17.6 0zM1213.91 673.72 a8.8 8.8 0 1 0 17.6 0 a8.8 8.8 0 1 0 -17.6 0zM1213.91 761.72 a8.8 8.8 0 1 0 17.6 0 a8.8 8.8 0 1 0 -17.6 0zM1137.7 805.72 a8.8 8.8 0 1 0 17.6 0 a8.8 8.8 0 1 0 -17.6 0zM1137.7 893.72 a8.8 8.8 0 1 0 17.6 0 a8.8 8.8 0 1 0 -17.6 0zM1061.48 937.72 a8.8 8.8 0 1 0 17.6 0 a8.8 8.8 0 1 0 -17.6 0zM985.27 893.72 a8.8 8.8 0 1 0 17.6 0 a8.8 8.8 0 1 0 -17.6 0zM1290.12 277.72 a8.8 8.8 0 1 0 17.6 0 a8.8 8.8 0 1 0 -17.6 0zM1290.12 365.72 a8.8 8.8 0 1 0 17.6 0 a8.8 8.8 0 1 0 -17.6 0zM1213.91 409.72 a8.8 8.8 0 1 0 17.6 0 a8.8 8.8 0 1 0 -17.6 0zM1137.7 365.72 a8.8 8.8 0 1 0 17.6 0 a8.8 8.8 0 1 0 -17.6 0zM1366.33 -30.28 a8.8 8.8 0 1 0 17.6 0 a8.8 8.8 0 1 0 -17.6 0zM1442.55 13.72 a8.8 8.8 0 1 0 17.6 0 a8.8 8.8 0 1 0 -17.6 0zM1442.55 101.72 a8.8 8.8 0 1 0 17.6 0 a8.8 8.8 0 1 0 -17.6 0zM1366.33 145.72 a8.8 8.8 0 1 0 17.6 0 a8.8 8.8 0 1 0 -17.6 0zM1290.12 101.72 a8.8 8.8 0 1 0 17.6 0 a8.8 8.8 0 1 0 -17.6 0zM1290.12 13.72 a8.8 8.8 0 1 0 17.6 0 a8.8 8.8 0 1 0 -17.6 0zM1366.33 497.72 a8.8 8.8 0 1 0 17.6 0 a8.8 8.8 0 1 0 -17.6 0zM1442.55 541.72 a8.8 8.8 0 1 0 17.6 0 a8.8 8.8 0 1 0 -17.6 0zM1442.55 629.72 a8.8 8.8 0 1 0 17.6 0 a8.8 8.8 0 1 0 -17.6 0zM1366.33 673.72 a8.8 8.8 0 1 0 17.6 0 a8.8 8.8 0 1 0 -17.6 0zM1290.12 629.72 a8.8 8.8 0 1 0 17.6 0 a8.8 8.8 0 1 0 -17.6 0zM1290.12 541.72 a8.8 8.8 0 1 0 17.6 0 a8.8 8.8 0 1 0 -17.6 0zM1518.76 673.72 a8.8 8.8 0 1 0 17.6 0 a8.8 8.8 0 1 0 -17.6 0zM1518.76 761.72 a8.8 8.8 0 1 0 17.6 0 a8.8 8.8 0 1 0 -17.6 0zM1442.55 805.72 a8.8 8.8 0 1 0 17.6 0 a8.8 8.8 0 1 0 -17.6 0zM1366.33 761.72 a8.8 8.8 0 1 0 17.6 0 a8.8 8.8 0 1 0 -17.6 0z" fill="rgba(214, 214, 214, 0.32)"></path><path d="M97.59 513.18L157.34 547.68L157.34 616.68L97.59 651.18L37.83 616.68L37.83 547.68zM37.83 616.68L97.59 651.18L97.59 720.18L37.83 754.68L-21.93 720.18L-21.93 651.18zM97.59 720.18L157.34 754.68L157.34 823.68L97.59 858.18L37.83 823.68L37.83 754.68zM217.1 99.18L276.86 133.68L276.86 202.68L217.1 237.18L157.34 202.68L157.34 133.68zM157.34 202.68L217.1 237.18L217.1 306.18L157.34 340.68L97.59 306.18L97.59 237.18zM217.1 306.18L276.86 340.68L276.86 409.68L217.1 444.18L157.34 409.68L157.34 340.68zM157.34 409.68L217.1 444.18L217.1 513.18L157.34 547.68L97.59 513.18L97.59 444.18zM217.1 513.18L276.86 547.68L276.86 616.68L217.1 651.18L157.34 616.68L157.34 547.68zM157.34 823.68L217.1 858.18L217.1 927.18L157.34 961.68L97.59 927.18L97.59 858.18zM276.86 -4.32L336.62 30.18L336.62 99.18L276.86 133.68L217.1 99.18L217.1 30.18zM336.62 99.18L396.37 133.68L396.37 202.68L336.62 237.18L276.86 202.68L276.86 133.68zM336.62 306.18L396.37 340.68L396.37 409.68L336.62 444.18L276.86 409.68L276.86 340.68zM336.62 513.18L396.37 547.68L396.37 616.68L336.62 651.18L276.86 616.68L276.86 547.68zM276.86 616.68L336.62 651.18L336.62 720.18L276.86 754.68L217.1 720.18L217.1 651.18zM336.62 720.18L396.37 754.68L396.37 823.68L336.62 858.18L276.86 823.68L276.86 754.68zM276.86 823.68L336.62 858.18L336.62 927.18L276.86 961.68L217.1 927.18L217.1 858.18zM456.13 99.18L515.89 133.68L515.89 202.68L456.13 237.18L396.37 202.68L396.37 133.68zM456.13 306.18L515.89 340.68L515.89 409.68L456.13 444.18L396.37 409.68L396.37 340.68zM396.37 409.68L456.13 444.18L456.13 513.18L396.37 547.68L336.62 513.18L336.62 444.18zM456.13 513.18L515.89 547.68L515.89 616.68L456.13 651.18L396.37 616.68L396.37 547.68zM396.37 616.68L456.13 651.18L456.13 720.18L396.37 754.68L336.62 720.18L336.62 651.18zM456.13 720.18L515.89 754.68L515.89 823.68L456.13 858.18L396.37 823.68L396.37 754.68zM575.65 720.18L635.4 754.68L635.4 823.68L575.65 858.18L515.89 823.68L515.89 754.68zM515.89 823.68L575.65 858.18L575.65 927.18L515.89 961.68L456.13 927.18L456.13 858.18zM635.4 -4.32L695.16 30.18L695.16 99.18L635.4 133.68L575.65 99.18L575.65 30.18zM635.4 202.68L695.16 237.18L695.16 306.18L635.4 340.68L575.65 306.18L575.65 237.18zM695.16 306.18L754.92 340.68L754.92 409.68L695.16 444.18L635.4 409.68L635.4 340.68zM635.4 616.68L695.16 651.18L695.16 720.18L635.4 754.68L575.65 720.18L575.65 651.18zM695.16 720.18L754.92 754.68L754.92 823.68L695.16 858.18L635.4 823.68L635.4 754.68zM635.4 823.68L695.16 858.18L695.16 927.18L635.4 961.68L575.65 927.18L575.65 858.18zM754.92 -4.32L814.68 30.18L814.68 99.18L754.92 133.68L695.16 99.18L695.16 30.18zM754.92 202.68L814.68 237.18L814.68 306.18L754.92 340.68L695.16 306.18L695.16 237.18zM754.92 409.68L814.68 444.18L814.68 513.18L754.92 547.68L695.16 513.18L695.16 444.18zM874.43 202.68L934.19 237.18L934.19 306.18L874.43 340.68L814.68 306.18L814.68 237.18zM934.19 306.18L993.95 340.68L993.95 409.68L934.19 444.18L874.43 409.68L874.43 340.68zM874.43 409.68L934.19 444.18L934.19 513.18L874.43 547.68L814.68 513.18L814.68 444.18zM934.19 720.18L993.95 754.68L993.95 823.68L934.19 858.18L874.43 823.68L874.43 754.68zM1053.71 513.18L1113.46 547.68L1113.46 616.68L1053.71 651.18L993.95 616.68L993.95 547.68zM1113.46 202.68L1173.22 237.18L1173.22 306.18L1113.46 340.68L1053.71 306.18L1053.71 237.18zM1113.46 823.68L1173.22 858.18L1173.22 927.18L1113.46 961.68L1053.71 927.18L1053.71 858.18zM1352.49 202.68L1412.25 237.18L1412.25 306.18L1352.49 340.68L1292.74 306.18L1292.74 237.18zM1412.25 513.18L1472.01 547.68L1472.01 616.68L1412.25 651.18L1352.49 616.68L1352.49 547.68zM1352.49 616.68L1412.25 651.18L1412.25 720.18L1352.49 754.68L1292.74 720.18L1292.74 651.18zM1472.01 202.68L1531.77 237.18L1531.77 306.18L1472.01 340.68L1412.25 306.18L1412.25 237.18zM1531.77 306.18L1591.52 340.68L1591.52 409.68L1531.77 444.18L1472.01 409.68L1472.01 340.68zM1472.01 409.68L1531.77 444.18L1531.77 513.18L1472.01 547.68L1412.25 513.18L1412.25 444.18zM1531.77 513.18L1591.52 547.68L1591.52 616.68L1531.77 651.18L1472.01 616.68L1472.01 547.68zM1531.77 720.18L1591.52 754.68L1591.52 823.68L1531.77 858.18L1472.01 823.68L1472.01 754.68zM1472.01 823.68L1531.77 858.18L1531.77 927.18L1472.01 961.68L1412.25 927.18L1412.25 858.18z" stroke="rgba(177, 177, 177, 0.19)" stroke-width="2"></path></g><defs><mask id="SvgjsMask1207"><rect width="1440" height="780" fill="#ffffff"></rect></mask></defs></svg>