<svg width="150" height="162" viewBox="0 0 150 162" fill="none" xmlns="http://www.w3.org/2000/svg">
<g id="Group 6092">
<g id="success_icon">
<g id="Group 6080">
<path id="Ellipse 35" d="M123.651 86.7775C123.651 114.258 101.329 136.535 73.792 136.535C46.2554 136.535 23.9326 114.258 23.9326 86.7775C23.9326 59.2969 46.2554 37.0195 73.792 37.0195C101.329 37.0195 123.651 59.2969 123.651 86.7775Z" fill="#0DA814"/>
<path id="Vector 2" d="M57.3945 87.5941L66.7646 96.5944L90.1897 78.5938" stroke="white" stroke-width="8" stroke-linecap="round" stroke-linejoin="round"/>
</g>
</g>
<ellipse id="Ellipse 150" opacity="0.55" cx="123.652" cy="133.548" rx="2.99156" ry="2.98548" fill="#008800"/>
<ellipse id="Ellipse 155" opacity="0.55" cx="7.97789" cy="96.7277" rx="2.99156" ry="2.98548" fill="#008800"/>
<ellipse id="Ellipse 151" opacity="0.55" cx="4.98594" cy="66.8742" rx="4.98594" ry="4.97579" fill="#008800"/>
<ellipse id="Ellipse 152" opacity="0.55" cx="137.612" cy="60.9025" rx="3.98875" ry="3.98064" fill="#008800"/>
<ellipse id="Ellipse 153" opacity="0.55" cx="115.674" cy="24.0803" rx="5.98312" ry="5.97095" fill="#008800"/>
<ellipse id="Ellipse 154" opacity="0.55" cx="51.8542" cy="153.451" rx="5.98312" ry="5.97095" fill="#008800"/>
<path id="Vector 79" opacity="0.55" d="M73.5537 21.543L73.7148 11.095L64.7412 10.9572L64.8792 2.00188" stroke="#008800" stroke-width="4" stroke-linecap="round"/>
<path id="Vector 80" opacity="0.55" d="M19.71 128.32L12.7219 127.342L11.4748 136.211L5.48504 135.373" stroke="#008800" stroke-width="4" stroke-linecap="round"/>
<path id="Vector 82" opacity="0.55" d="M148 93.8945L141.063 92.6023L139.416 101.407L133.471 100.299" stroke="#008800" stroke-width="4" stroke-linecap="round"/>
<path id="Vector 81" opacity="0.55" d="M92.6621 145.91L91.7844 152.898L100.689 154.012L99.937 160.001" stroke="#008800" stroke-width="4" stroke-linecap="round"/>
<line id="Line 56" opacity="0.55" x1="2" y1="-2" x2="16.9344" y2="-2" transform="matrix(0.82852 0.55996 -0.561525 0.827459 9.97168 32.043)" stroke="#008800" stroke-width="4" stroke-linecap="round"/>
</g>
</svg>
