<svg width="68" height="61" viewBox="0 0 68 61" fill="none" xmlns="http://www.w3.org/2000/svg">
<g id="Upload icon">
<path id="Vector" d="M35.7099 14.8738L35.6161 14.8453C35.1526 14.7045 34.8922 14.2105 35.0289 13.7435L35.7099 14.8738ZM35.7099 14.8738L35.714 14.869M35.7099 14.8738L35.714 14.869M35.714 14.869C36.1488 14.9481 36.5769 14.682 36.7033 14.2475C37.8621 10.2819 41.5115 7.51425 45.5745 7.51425C46.0593 7.51425 46.4479 7.11449 46.4479 6.62744C46.4479 6.14037 46.0593 5.74062 45.5745 5.74062C40.5752 5.74062 36.3767 9.13059 35.029 13.7434L35.714 14.869Z" fill="#4F46E5" stroke="#F9FFF9" stroke-width="0.3"/>
<path id="Vector_2" d="M55.7024 42.7326H51.3621C50.9627 42.7326 50.6387 42.4026 50.6387 41.9958C50.6387 41.589 50.9626 41.259 51.3621 41.259H55.7024C61.6854 41.259 66.5535 36.3008 66.5535 30.2069C66.5535 24.1131 61.6854 19.1549 55.7024 19.1549H55.5981C55.3883 19.1549 55.1888 19.0623 55.0514 18.9007C54.9139 18.7391 54.8519 18.5249 54.8819 18.3134C54.9465 17.8545 54.979 17.3934 54.979 16.9445C54.979 11.6632 50.76 7.36602 45.5748 7.36602C43.5575 7.36602 41.6338 8.00809 40.0112 9.22327C39.6547 9.49011 39.1483 9.37169 38.9421 8.97223C34.347 0.0601129 22.345 -1.13669 16.1226 6.61607C13.5013 9.8822 12.4714 14.1309 13.2967 18.2718C13.3877 18.7292 13.044 19.1555 12.5878 19.1555H12.2979C6.31489 19.1555 1.44687 24.1137 1.44687 30.2075C1.44687 36.3013 6.31489 41.2595 12.2979 41.2595H16.6382C17.0377 41.2595 17.3617 41.5895 17.3617 41.9964C17.3617 42.4032 17.0377 42.7332 16.6382 42.7332H12.2979C5.51698 42.7332 0 37.114 0 30.2075C0 23.4947 5.21155 17.9981 11.73 17.6949C11.1177 13.3988 12.2886 9.06536 15.0023 5.6835C21.6643 -2.61762 34.4316 -1.68717 39.8286 7.56918C41.5503 6.46976 43.5205 5.893 45.5745 5.893C51.8567 5.893 56.8348 11.3391 56.3992 17.7018C62.8576 18.0707 68 23.5383 68 30.2069C68 37.114 62.4833 42.7326 55.7024 42.7326Z" fill="#4F46E5"/>
<path id="Vector_3" d="M15.6684 41.5765C15.6684 51.8138 23.846 60.1468 33.9036 60.1468C43.9613 60.1468 52.1389 51.8137 52.1389 41.5765C52.1389 31.3393 43.9613 23.0062 33.9036 23.0062C23.8459 23.0062 15.6684 31.3394 15.6684 41.5765ZM17.4155 41.5765C17.4155 32.3127 24.8148 24.7802 33.9036 24.7802C42.9923 24.7802 50.3917 32.3126 50.3917 41.5765C50.3917 50.8404 42.9923 58.3729 33.9036 58.3729C24.8149 58.3729 17.4155 50.8405 17.4155 41.5765Z" fill="#4F46E5" stroke="#F9FFF9" stroke-width="0.3"/>
<g id="arrow">
<path id="Vector_4" d="M33.5531 49.0021C33.5531 49.3801 33.8549 49.6915 34.2327 49.6915C34.6105 49.6915 34.9124 49.3806 34.9124 49.0021V34.9769C34.9124 34.5988 34.6106 34.2875 34.2327 34.2875C33.8549 34.2875 33.5531 34.5989 33.5531 34.9769V49.0021Z" fill="#4F46E5" stroke="#4F46E5" stroke-width="0.3"/>
<path id="Vector_5" d="M34.2334 35.954L37.9887 39.7789C38.121 39.9137 38.2958 39.9818 38.4702 39.9818L34.2334 35.954ZM34.2334 35.954L30.4781 39.7788L30.478 39.7789L30.371 39.6738L34.2334 35.954ZM38.9519 39.7788C39.216 39.5097 39.2159 39.0749 38.9518 38.8058L34.7149 34.4905C34.4493 34.2199 34.0172 34.2198 33.7518 34.4905L38.9518 39.7789C38.9518 39.7789 38.9519 39.7788 38.9519 39.7788ZM38.9519 39.7788C38.8193 39.9142 38.6444 39.9818 38.4703 39.9818L38.9519 39.7788Z" fill="#4F46E5" stroke="#4F46E5" stroke-width="0.3"/>
</g>
</g>
</svg>
